<?xml version="1.0" encoding="utf-8"?>
<!-- Generator: Adobe Illustrator 16.0.4, SVG Export Plug-In . SVG Version: 6.00 Build 0)  -->
<!DOCTYPE svg PUBLIC "-//W3C//DTD SVG 1.1//EN" "http://www.w3.org/Graphics/SVG/1.1/DTD/svg11.dtd">
<svg version="1.1" id="Capa_1" xmlns="http://www.w3.org/2000/svg" xmlns:xlink="http://www.w3.org/1999/xlink" x="0px" y="0px"
	 width="800px" height="254.5px" viewBox="0 0 800 254.5" enable-background="new 0 0 800 254.5" xml:space="preserve">
<path fill="#FFFFFF" d="M98.806,232.113c-16.028-40.668-23.823-84.112-22.932-127.816c-0.128-18.979,1.333-37.935,4.369-56.67H96.43
	c-3.655,17.828-5.373,35.999-5.122,54.196c-0.283,39.073,5.03,77.985,15.776,115.554c10.753-37.574,16.069-76.493,15.786-115.574
	c0.252-18.197-1.465-36.369-5.122-54.197h16.176c3.041,18.734,4.506,37.691,4.379,56.671c0.892,43.709-6.904,87.163-22.937,127.836
	H98.806L98.806,232.113z"/>
<path fill="#FFFFFF" d="M164.917,93.033c1.466-1.33,3.734-1.22,5.064,0.247c1.33,1.467,1.221,3.734-0.246,5.064
	c-1.461,1.327-3.721,1.222-5.054-0.234c-1.337-1.461-1.236-3.729,0.225-5.066C164.909,93.041,164.913,93.037,164.917,93.033"/>
<path fill="#FFFFFF" d="M164.917,104.189c1.466-1.33,3.734-1.22,5.064,0.247c1.331,1.466,1.221,3.733-0.246,5.064
	c-1.461,1.326-3.721,1.222-5.054-0.235c-1.337-1.46-1.236-3.728,0.225-5.065C164.909,104.197,164.913,104.193,164.917,104.189"/>
<path fill="#FFFFFF" d="M172.513,112.892c1.465-1.332,3.733-1.224,5.065,0.241c1.332,1.465,1.225,3.732-0.24,5.064
	c-1.461,1.328-3.72,1.226-5.055-0.229c-1.339-1.459-1.24-3.727,0.219-5.065C172.506,112.899,172.509,112.896,172.513,112.892"/>
<path fill="#FFFFFF" d="M162.648,141.984c1.465-1.332,3.732-1.225,5.065,0.242c1.332,1.465,1.225,3.731-0.241,5.063
	c-1.46,1.328-3.721,1.226-5.055-0.229c-1.338-1.459-1.24-3.727,0.219-5.065C162.64,141.993,162.645,141.989,162.648,141.984"/>
<path fill="#FFFFFF" d="M162.259,153.279c1.538-1.247,3.795-1.012,5.043,0.527c1.247,1.537,1.012,3.795-0.526,5.043
	c-1.531,1.241-3.778,1.014-5.029-0.511c-1.256-1.528-1.035-3.789,0.495-5.046C162.247,153.289,162.253,153.285,162.259,153.279"/>
<path fill="#FFFFFF" d="M169.547,162.326c1.554-1.229,3.808-0.965,5.036,0.59c1.228,1.553,0.963,3.809-0.59,5.035
	c-1.548,1.224-3.794,0.967-5.025-0.576c-1.235-1.547-0.982-3.803,0.565-5.039C169.538,162.333,169.542,162.329,169.547,162.326"/>
<path fill="#FFFFFF" d="M170.259,135.035c1.468-1.329,3.735-1.217,5.064,0.251c1.33,1.468,1.217,3.733-0.25,5.063
	c-1.461,1.323-3.717,1.219-5.049-0.234c-1.338-1.458-1.24-3.727,0.219-5.065C170.248,135.045,170.254,135.04,170.259,135.035"/>
<path fill="#FFFFFF" d="M155.318,190.48c1.617-1.143,3.854-0.758,4.997,0.858c1.143,1.618,0.758,3.854-0.859,4.998
	c-1.612,1.14-3.843,0.761-4.989-0.847c-1.149-1.612-0.774-3.852,0.838-5C155.31,190.486,155.314,190.484,155.318,190.48"/>
<path fill="#FFFFFF" d="M154.473,202.964c1.648-1.098,3.875-0.651,4.972,0.996c1.098,1.647,0.651,3.875-0.997,4.974
	c-1.643,1.094-3.862,0.653-4.963-0.985c-1.104-1.644-0.667-3.871,0.977-4.976C154.465,202.969,154.469,202.967,154.473,202.964"/>
<path fill="#FFFFFF" d="M163.785,184.412c1.617-1.143,3.854-0.76,4.998,0.857c1.143,1.617,0.758,3.855-0.859,4.998
	c-1.612,1.14-3.842,0.76-4.989-0.847c-1.149-1.612-0.774-3.851,0.838-5.001C163.777,184.417,163.781,184.415,163.785,184.412"/>
<path fill="#FFFFFF" d="M181.148,76.183c0.868-1.781,3.014-2.521,4.794-1.654c1.78,0.867,2.52,3.014,1.653,4.794
	c-0.863,1.771-2.995,2.514-4.771,1.663c-1.786-0.855-2.541-2.996-1.686-4.782C181.142,76.197,181.145,76.19,181.148,76.183"/>
<path fill="#FFFFFF" d="M184.104,65.006c0.097-1.978,1.778-3.503,3.756-3.407c0.003,0,0.006,0.001,0.009,0.001
	c1.978,0.096,3.502,1.778,3.406,3.756c0,0.001,0,0.002,0,0.004c-0.094,1.978-1.773,3.505-3.751,3.411c-0.002,0-0.005,0-0.008-0.001
	c-1.978-0.093-3.505-1.772-3.412-3.75C184.104,65.015,184.104,65.011,184.104,65.006"/>
<path fill="#FFFFFF" d="M183.689,52.221c-0.373-1.945,0.902-3.823,2.847-4.196c0.007-0.002,0.014-0.003,0.021-0.004
	c1.945-0.371,3.823,0.905,4.194,2.851c0,0.002,0,0.005,0.001,0.007c0.373,1.945-0.9,3.824-2.846,4.197
	c-0.006,0.001-0.012,0.002-0.018,0.004c-1.944,0.373-3.824-0.901-4.197-2.845C183.691,52.23,183.69,52.226,183.689,52.221"/>
<path fill="#FFFFFF" d="M179.694,40.769c-1.002-1.708-0.43-3.905,1.278-4.908c0.006-0.004,0.012-0.007,0.018-0.01
	c1.708-1.002,3.905-0.431,4.907,1.277c0.002,0.004,0.003,0.006,0.005,0.009c1.005,1.706,0.436,3.903-1.271,4.908
	c-0.005,0.003-0.01,0.006-0.014,0.009c-1.707,1.004-3.904,0.436-4.909-1.271c-0.003-0.005-0.005-0.01-0.008-0.014"/>
<path fill="#FFFFFF" d="M173.891,84.721c1.465-1.332,3.732-1.224,5.064,0.241c1.333,1.465,1.224,3.732-0.241,5.064
	c-1.461,1.328-3.72,1.225-5.055-0.229c-1.338-1.46-1.24-3.729,0.22-5.065C173.883,84.728,173.887,84.724,173.891,84.721"/>
<path fill="#FFFFFF" d="M49.373,93.033c-1.462-1.335-3.73-1.232-5.065,0.23c-0.003,0.004-0.007,0.007-0.011,0.011
	c-1.341,1.458-1.247,3.726,0.21,5.066c0.003,0.003,0.007,0.007,0.011,0.01c1.459,1.339,3.727,1.241,5.065-0.219
	c0.007-0.007,0.014-0.014,0.021-0.021c1.338-1.459,1.24-3.728-0.22-5.066C49.381,93.041,49.377,93.037,49.373,93.033"/>
<path fill="#FFFFFF" d="M49.373,104.189c-1.463-1.333-3.731-1.229-5.065,0.234c-0.003,0.005-0.007,0.008-0.011,0.013
	c-1.339,1.458-1.243,3.726,0.215,5.065c0.001,0.001,0.003,0.003,0.005,0.005c1.459,1.338,3.727,1.241,5.065-0.219
	c0.007-0.007,0.014-0.015,0.021-0.022c1.338-1.459,1.24-3.727-0.22-5.065C49.381,104.197,49.377,104.193,49.373,104.189"/>
<path fill="#FFFFFF" d="M41.767,112.892c-1.466-1.331-3.733-1.221-5.064,0.245c0,0.001,0,0.001-0.001,0.002
	c-1.342,1.455-1.25,3.723,0.205,5.065c1.455,1.343,3.723,1.252,5.066-0.203c0.01-0.011,0.02-0.022,0.03-0.033
	c1.337-1.46,1.236-3.729-0.224-5.065C41.774,112.899,41.771,112.896,41.767,112.892"/>
<path fill="#FFFFFF" d="M51.632,141.984c-1.465-1.332-3.732-1.226-5.064,0.24c-0.002,0.002-0.004,0.004-0.006,0.006
	c-1.341,1.459-1.247,3.727,0.21,5.067c0.002,0,0.004,0.002,0.005,0.004c1.458,1.341,3.726,1.245,5.066-0.213
	c0.008-0.009,0.017-0.019,0.025-0.028c1.337-1.459,1.236-3.729-0.224-5.064C51.64,141.993,51.636,141.989,51.632,141.984"/>
<path fill="#FFFFFF" d="M52.016,153.279c-1.533-1.252-3.792-1.026-5.045,0.507c-0.001,0.001-0.003,0.003-0.005,0.006
	c-1.253,1.532-1.027,3.792,0.506,5.045c0.002,0,0.004,0.002,0.006,0.004c1.531,1.255,3.791,1.031,5.046-0.5
	c0.003-0.003,0.007-0.008,0.01-0.012c1.257-1.53,1.035-3.789-0.495-5.046c-0.006-0.004-0.012-0.01-0.017-0.014"/>
<path fill="#FFFFFF" d="M44.748,162.326c-1.549-1.234-3.805-0.979-5.039,0.57c-0.002,0.002-0.004,0.004-0.006,0.008
	c-1.238,1.546-0.989,3.802,0.556,5.039c0.002,0.002,0.005,0.004,0.007,0.006c1.548,1.236,3.804,0.982,5.039-0.566
	c0.002-0.002,0.005-0.005,0.007-0.008c1.24-1.544,0.993-3.8-0.551-5.04C44.756,162.332,44.752,162.329,44.748,162.326"/>
<path fill="#FFFFFF" d="M44.026,135.035c-1.463-1.334-3.731-1.229-5.065,0.234c-0.003,0.002-0.007,0.008-0.011,0.012
	c-1.339,1.457-1.243,3.726,0.215,5.066c0.002,0.002,0.004,0.004,0.006,0.004c1.456,1.342,3.724,1.25,5.066-0.207
	c0.008-0.01,0.017-0.019,0.025-0.028c1.338-1.458,1.24-3.728-0.219-5.065C44.037,135.045,44.032,135.04,44.026,135.035"/>
<path fill="#FFFFFF" d="M58.977,190.48c-1.612-1.14-3.842-0.762-4.989,0.846c-1.152,1.611-0.781,3.851,0.83,5.002
	c0.004,0.002,0.007,0.005,0.01,0.007c1.612,1.14,3.842,0.763,4.989-0.845c1.152-1.611,0.781-3.85-0.83-5.002
	C58.984,190.486,58.98,190.484,58.977,190.48"/>
<path fill="#FFFFFF" d="M59.812,202.964c-1.645-1.103-3.872-0.664-4.975,0.979c-0.003,0.005-0.006,0.01-0.009,0.015
	c-1.104,1.644-0.667,3.871,0.977,4.976c0.004,0.002,0.008,0.006,0.012,0.008c1.645,1.104,3.872,0.666,4.975-0.979
	c0.003-0.004,0.006-0.009,0.009-0.014c1.105-1.644,0.667-3.871-0.976-4.976C59.82,202.969,59.816,202.967,59.812,202.964"/>
<path fill="#FFFFFF" d="M50.5,184.412c-1.613-1.139-3.844-0.76-4.989,0.85c-1.151,1.612-0.777,3.852,0.834,5.002
	c0.004,0.002,0.007,0.004,0.011,0.008c1.614,1.142,3.849,0.761,4.994-0.852c1.149-1.611,0.774-3.852-0.838-5.001
	C50.508,184.417,50.504,184.415,50.5,184.412"/>
<path fill="#FFFFFF" d="M33.141,76.183c-0.862-1.784-3.006-2.53-4.789-1.668c-0.005,0.003-0.011,0.005-0.016,0.008
	c-1.782,0.863-2.527,3.007-1.664,4.79c0.001,0.004,0.003,0.006,0.004,0.009c0.862,1.783,3.006,2.53,4.789,1.668
	c0.002-0.001,0.004-0.001,0.006-0.003c1.785-0.856,2.537-2.998,1.68-4.784C33.148,76.196,33.145,76.188,33.141,76.183"/>
<path fill="#FFFFFF" d="M30.181,65.006c-0.096-1.978-1.777-3.503-3.755-3.407c-0.007,0-0.014,0-0.02,0.001
	c-1.978,0.096-3.503,1.778-3.406,3.756c0,0.001,0,0.002,0,0.004c0.094,1.978,1.773,3.505,3.751,3.411c0.003,0,0.006,0,0.009-0.001
	c1.978-0.087,3.511-1.762,3.423-3.741C30.182,65.021,30.181,65.014,30.181,65.006"/>
<path fill="#FFFFFF" d="M30.621,52.221c0.373-1.945-0.9-3.823-2.846-4.197c-0.006-0.001-0.012-0.003-0.018-0.003
	c-1.944-0.374-3.824,0.9-4.197,2.844c-0.001,0.005-0.001,0.01-0.002,0.014c-0.374,1.945,0.9,3.824,2.844,4.197
	c0.004,0.002,0.009,0.002,0.014,0.004c1.944,0.376,3.825-0.896,4.202-2.84C30.619,52.235,30.62,52.228,30.621,52.221"/>
<path fill="#FFFFFF" d="M34.601,40.769c1.003-1.708,0.433-3.905-1.274-4.908c-0.005-0.004-0.011-0.007-0.016-0.01
	c-1.707-1.005-3.904-0.435-4.909,1.271c-0.003,0.005-0.006,0.009-0.009,0.015c-1.003,1.707-0.433,3.904,1.275,4.908
	c0.005,0.002,0.011,0.005,0.016,0.009c1.707,1.004,3.904,0.436,4.909-1.271C34.595,40.778,34.599,40.773,34.601,40.769"/>
<path fill="#FFFFFF" d="M40.389,84.721c-1.462-1.335-3.73-1.233-5.065,0.229c-0.003,0.003-0.007,0.008-0.011,0.012
	c-1.341,1.457-1.247,3.725,0.209,5.066c0.004,0.003,0.007,0.006,0.011,0.009c1.456,1.342,3.724,1.249,5.066-0.207
	c0.01-0.011,0.02-0.021,0.03-0.033c1.335-1.462,1.233-3.73-0.229-5.065C40.396,84.728,40.393,84.724,40.389,84.721"/>
<path fill="#FFFFFF" d="M54.767,30.146c1.142-1.238,3.067-1.328,4.318-0.2c1.241,1.139,1.332,3.065,0.205,4.317
	c-1.133,1.248-3.059,1.351-4.318,0.23c-1.244-1.14-1.335-3.07-0.205-4.323 M83.661,190.016L63.172,175.55
	c-1.64-1.295-1.919-3.676-0.624-5.315c0.001-0.002,0.003-0.004,0.005-0.006l13.711-16.059c2.829-3.109,2.602-7.923-0.508-10.752
	c-0.001-0.002-0.003-0.003-0.004-0.004l-17.179-15.646c-1.549-1.417-1.655-3.823-0.239-5.371c0.003-0.003,0.005-0.005,0.008-0.008
	L74,105.225c2.824-3.114,2.595-7.926-0.513-10.757l-22.721-20.79c-2.967-2.896-3.191-7.593-0.512-10.757l23.694-31.618
	c2.363-2.587,2.187-6.599-0.395-8.969c-2.4-1.902-5.515-2.651-8.518-2.049C43.408,22.59,27.743,41.993,30.048,63.621
	c0.045,0.429,0.098,0.856,0.158,1.282c0.048,6.597,2.749,12.897,7.493,17.481l17.118,15.623c1.549,1.404,1.665,3.798,0.261,5.347
	c-0.005,0.005-0.01,0.011-0.015,0.016L39.41,120.544c-2.825,3.113-2.596,7.925,0.512,10.756l17.174,15.658
	c1.549,1.409,1.662,3.806,0.254,5.354c-0.003,0.002-0.005,0.006-0.008,0.008L43.56,169.593c-2.628,3.287-2.096,8.081,1.188,10.712
	l20.529,14.668c1.65,1.289,1.943,3.67,0.654,5.32c-0.003,0.004-0.006,0.008-0.009,0.012l-8.851,13.235
	c-2.451,3.416-1.668,8.171,1.747,10.622c0.003,0.002,0.006,0.004,0.01,0.007c3.419,2.45,8.178,1.664,10.627-1.755
	c0-0.001,0-0.001,0.001-0.002l15.489-21.702c2.597-3.31,2.02-8.097-1.29-10.694c0,0,0,0-0.001,0"/>
<path fill="#FFFFFF" d="M159.313,34.468c-1.253,1.13-3.183,1.039-4.323-0.205c-1.126-1.252-1.035-3.178,0.205-4.317
	c1.251-1.128,3.177-1.039,4.318,0.2C160.645,31.396,160.555,33.326,159.313,34.468 M149.264,20.28
	c-3.003-0.602-6.119,0.149-8.518,2.054c-2.589,2.363-2.775,6.377-0.415,8.969l23.684,31.613c2.682,3.164,2.458,7.862-0.512,10.756
	l-22.758,20.786c-3.111,2.826-3.343,7.64-0.516,10.752c0.001,0.001,0.003,0.003,0.004,0.004l15.668,17.169
	c1.409,1.551,1.296,3.95-0.251,5.363l-17.18,15.643c-3.105,2.832-3.334,7.644-0.512,10.756l13.717,16.054
	c1.311,1.632,1.049,4.018-0.583,5.327c-0.004,0.004-0.007,0.007-0.011,0.01L130.594,190c-3.311,2.591-3.894,7.374-1.303,10.686
	c0.002,0.004,0.005,0.006,0.007,0.01l15.546,21.717c2.451,3.419,7.207,4.204,10.628,1.757c3.422-2.446,4.211-7.205,1.764-10.626
	c0-0.001-0.001-0.002-0.001-0.003l-8.877-13.25c-1.293-1.649-1.003-4.036,0.646-5.329c0.001-0.001,0.003-0.003,0.004-0.004
	l20.544-14.645c3.28-2.629,3.814-7.416,1.194-10.705l-13.784-17.271c-1.414-1.544-1.307-3.942,0.237-5.354
	c0.003-0.004,0.005-0.006,0.009-0.008l17.169-15.658c3.108-2.83,3.337-7.644,0.512-10.755l-15.653-17.165
	c-1.414-1.55-1.304-3.953,0.246-5.369L176.6,82.384c4.752-4.584,7.46-10.888,7.514-17.491c3.008-21.545-12.019-41.449-33.563-44.458
	c-0.421-0.059-0.843-0.11-1.267-0.156"/>
<path fill="#FFFFFF" d="M651.734,94.253V54.706h11.012c2.594-0.01,5.181,0.253,7.719,0.784c2.006,0.433,3.916,1.23,5.636,2.352
	c2.575,1.771,4.638,4.192,5.978,7.017c1.479,3.002,2.216,6.314,2.15,9.661c0.048,3.351-0.689,6.668-2.15,9.686
	c-1.36,2.808-3.421,5.217-5.982,6.996c-1.719,1.127-3.628,1.932-5.635,2.376c-2.542,0.492-5.129,0.722-7.719,0.687L651.734,94.253z
	 M672.473,96.456c2.415-0.61,4.682-1.705,6.659-3.217c2.853-2.122,5.138-4.911,6.659-8.124c1.623-3.324,2.455-6.979,2.433-10.679
	c0.027-3.693-0.793-7.343-2.396-10.668c-1.528-3.216-3.824-6.007-6.685-8.129c-1.967-1.497-4.209-2.593-6.598-3.227
	c-2.914-0.7-5.901-1.044-8.896-1.024h-15.726v46.098h15.726c2.978,0.049,5.946-0.314,8.823-1.081 M606.521,79.199l8.395-19.94
	l8.288,19.94H606.521z M614.138,53.184l-18.95,44.363h3.683l6.459-15.366h19.084l6.479,15.366h3.684l-18.951-44.363H614.138z
	 M551.812,94.253V54.706h10.98c2.596-0.01,5.186,0.253,7.725,0.784c2.007,0.435,3.914,1.232,5.635,2.352
	c2.569,1.785,4.637,4.202,6.004,7.017c1.443,3.013,2.17,6.319,2.12,9.661c0.03,3.347-0.693,6.657-2.12,9.686
	c-1.39,2.798-3.455,5.203-6.015,6.996c-1.72,1.126-3.628,1.93-5.634,2.376c-2.545,0.493-5.133,0.722-7.725,0.687L551.812,94.253z
	 M572.531,96.456c2.414-0.638,4.685-1.729,6.688-3.217c2.838-2.135,5.122-4.921,6.659-8.124c1.588-3.331,2.396-6.983,2.355-10.674
	c0.031-3.689-0.772-7.337-2.355-10.669c-1.537-3.204-3.821-5.994-6.659-8.134c-1.991-1.473-4.238-2.567-6.628-3.227
	c-2.906-0.702-5.891-1.046-8.882-1.024h-15.807v46.098h15.807c2.976,0.048,5.944-0.316,8.82-1.081 M530.838,51.365h-3.888v46.099
	h3.888V51.365z M512.26,85.51c-0.021-1.475-0.273-2.937-0.747-4.333c-0.534-1.342-1.295-2.583-2.249-3.667
	c-2.442-2.211-5.309-3.902-8.426-4.969c-0.456-0.225-0.753-0.322-0.982-0.477c-2.701-0.918-5.185-2.383-7.295-4.301
	c-1.179-1.355-1.784-3.115-1.689-4.908c-0.067-2.354,0.88-4.623,2.603-6.229c1.849-1.652,4.263-2.53,6.74-2.453
	c1.735,0.006,3.456,0.313,5.086,0.907c1.938,0.735,3.771,1.719,5.455,2.924V53.87c-1.621-0.948-3.338-1.722-5.122-2.31
	c-1.698-0.478-3.45-0.738-5.214-0.773c-3.507-0.151-6.932,1.093-9.521,3.462c-2.429,2.235-3.771,5.41-3.685,8.708
	c-0.127,2.604,0.726,5.162,2.388,7.171c2.562,2.454,5.622,4.327,8.974,5.491c2.955,1.023,5.693,2.587,8.078,4.61
	c1.207,1.44,1.825,3.283,1.73,5.158c0.146,2.514-0.803,4.969-2.603,6.73c-1.933,1.719-4.465,2.606-7.048,2.469
	c-1.912-0.048-3.796-0.473-5.542-1.25c-2.215-0.956-4.283-2.218-6.146-3.749v4.467c1.801,1.283,3.767,2.317,5.845,3.072
	c1.897,0.657,3.893,0.993,5.9,0.994c3.552,0.158,7.021-1.099,9.649-3.493c2.521-2.332,3.912-5.638,3.815-9.071 M446.893,54.572
	h7.657c2.837-0.203,5.657,0.578,7.985,2.213c1.857,1.507,2.881,3.813,2.751,6.203c0.071,1.728-0.346,3.441-1.204,4.943
	c-0.904,1.408-2.23,2.495-3.79,3.104c-1.079,0.452-2.209,0.77-3.365,0.948c-1.42,0.133-3.786,0.214-7.202,0.214h-2.843
	L446.893,54.572z M446.893,75.358h3.708c1.974-0.046,3.944,0.134,5.875,0.537c1.225,0.271,2.349,0.88,3.242,1.757
	c0.865,0.978,1.677,2.004,2.429,3.073c1.023,1.383,2.306,3.217,3.683,5.471l7.3,11.329h4.133l-12.585-19.402
	c-0.504-0.803-1.092-1.551-1.751-2.232c-0.721-0.625-1.494-1.188-2.311-1.68c2.565-0.695,4.851-2.174,6.536-4.231
	c1.49-2.019,2.248-4.488,2.146-6.997c0.208-3.314-1.222-6.521-3.826-8.579c-3.282-2.185-7.189-3.236-11.126-2.991h-11.072v46.099
	h3.631L446.893,75.358z M426.998,94.387H405.43V75.645h20.334v-2.956H405.43v-18.28h21.057v-2.991h-24.729v46.099h25.242
	L426.998,94.387L426.998,94.387z M371.429,98.299l19.345-46.887h-3.917l-15.736,38.697L355.56,51.407h-4.098l19.413,46.887
	L371.429,98.299z M334.35,97.536h3.923V51.438h-3.923V97.536z M280.461,56.104l33.77,40.751h3.38V50.797h-3.632v40.132
	l-33.37-40.132h-3.832v46.058h3.683L280.461,56.104L280.461,56.104z M238.772,101.623c5.883,0.283,11.603-1.981,15.699-6.212
	c4.01-4.633,6.089-10.629,5.808-16.75V48.186h-4.394v30.732c0.245,4.874-1.391,9.655-4.569,13.358
	c-3.284,3.369-7.844,5.184-12.544,4.994c-4.671,0.203-9.203-1.616-12.436-4.994c-3.262-3.662-4.947-8.461-4.692-13.358V48.186h-4.19
	v30.476c-0.35,6.119,1.711,12.132,5.742,16.75c4.054,4.216,9.728,6.48,15.571,6.212 M479.038,171.443
	c-1.258,3.006-3.104,5.731-5.43,8.016c-2.341,2.323-5.128,4.146-8.194,5.357c-3.16,1.229-6.521,1.854-9.912,1.845
	c-3.362-0.001-6.695-0.626-9.829-1.845c-3.045-1.254-5.825-3.071-8.194-5.357c-2.358-2.264-4.22-4.993-5.466-8.016
	c-1.304-2.971-1.966-6.182-1.94-9.426c-0.016-3.271,0.637-6.51,1.916-9.521c1.279-2.97,3.139-5.654,5.465-7.899
	c2.459-2.303,5.305-4.154,8.405-5.47c3.052-1.231,6.312-1.862,9.604-1.854c3.334-0.021,6.641,0.607,9.732,1.854
	c3.089,1.233,5.892,3.086,8.235,5.445c2.416,2.305,4.342,5.073,5.665,8.139c1.229,2.94,1.853,6.099,1.834,9.287
	c0.03,3.241-0.618,6.454-1.905,9.429 M483.781,135.193c-3.726-3.539-8.1-6.32-12.882-8.195c-4.938-1.874-10.174-2.833-15.453-2.833
	c-5.192,0.003-10.339,0.965-15.184,2.833c-4.825,1.833-9.231,4.62-12.958,8.195c-3.717,3.416-6.697,7.554-8.764,12.16
	c-2,4.519-3.045,9.4-3.074,14.342c-0.022,5.068,0.994,10.087,2.987,14.748c2.06,4.705,5.069,8.937,8.841,12.426
	c3.734,3.525,8.12,6.29,12.912,8.139c4.871,1.867,10.042,2.825,15.259,2.828c5.248,0.032,10.457-0.904,15.365-2.761
	c4.829-1.886,9.257-4.666,13.052-8.196c3.658-3.434,6.606-7.553,8.677-12.124c1.987-4.558,3.006-9.478,2.986-14.45
	c0.042-5.052-0.952-10.058-2.92-14.71c-2.062-4.688-5.065-8.905-8.825-12.385 M722.89,186.205v-18.209h34.994v-12.729h-34.999
	V137.77h36.096v-12.662h-50.889v73.758h52.057v-12.652L722.89,186.205z M685.663,170.372c0.183,4.276-1.663,8.392-4.979,11.099
	c-3.854,3.041-8.68,4.584-13.584,4.344c-3.074,0.043-6.129-0.535-8.979-1.694c-2.614-1.115-4.933-2.827-6.766-4.999
	c-1.011-1.199-1.714-2.624-2.05-4.155c-0.595-3.007-0.836-6.073-0.717-9.138v-41.042h-13.731v41.489
	c-0.152,4.33,0.266,8.664,1.244,12.887c0.808,2.929,2.239,5.648,4.199,7.97c3.095,3.856,7.072,6.909,11.598,8.902
	c4.802,2.045,9.978,3.067,15.196,3.002c8.428,0.33,16.681-2.461,23.178-7.836c6.013-5.068,9.347-12.632,9.029-20.489v-45.924h-13.64
	L685.663,170.372L685.663,170.372z M612.386,171.396c-1.259,3.047-3.114,5.812-5.46,8.129l-0.082,0.072
	c-2.332,2.411-5.117,4.34-8.193,5.674c-3.072,1.246-6.355,1.891-9.672,1.896c-3.325,0.001-6.616-0.666-9.681-1.962
	c-3.075-1.341-5.867-3.254-8.23-5.635v-0.07c-2.354-2.294-4.2-5.055-5.425-8.104c-1.307-3.061-1.964-6.357-1.932-9.686
	c-0.032-3.365,0.626-6.702,1.932-9.804c1.219-3.035,3.045-5.79,5.368-8.093c2.409-2.375,5.25-4.271,8.369-5.584
	c3.032-1.282,6.296-1.936,9.588-1.916c3.321-0.032,6.613,0.619,9.671,1.916c3.069,1.248,5.845,3.123,8.146,5.506
	c2.403,2.392,4.303,5.242,5.582,8.38c1.301,3.028,1.952,6.294,1.911,9.589c0.024,3.324-0.624,6.62-1.911,9.686 M620.494,186.732
	c5.482-6.487,8.431-14.74,8.298-23.234c0.019-5.196-0.975-10.346-2.925-15.162c-2.061-4.722-5.029-8.993-8.738-12.568
	c-3.666-3.617-8.02-6.463-12.805-8.37c-4.893-1.935-10.105-2.922-15.366-2.91c-5.2-0.01-10.354,0.978-15.183,2.91
	c-4.813,1.92-9.207,4.765-12.934,8.37c-3.649,3.53-6.559,7.756-8.554,12.426c-2.055,4.592-3.115,9.566-3.109,14.598
	c-0.126,8.75,2.789,17.273,8.247,24.115c5.375,6.791,12.889,11.566,21.318,13.553c5.758,4.197,11.96,7.748,18.495,10.587
	c5.175,2.34,10.765,3.622,16.44,3.771h1.45c0.406,0.002,0.812-0.039,1.209-0.123l0.594-0.088l10.937-9.604l-0.829-2.311
	l-0.604-1.453l-1.443,0.316c-1.251,0.262-2.516,0.457-3.786,0.584c-0.996,0.156-2.004,0.221-3.012,0.194
	c-3.021-0.038-6.024-0.431-8.953-1.168c-1.938-0.548-4.153-1.326-6.511-2.233c6.91-2.402,13.051-6.617,17.778-12.201
	 M527.621,155.518L527.621,155.518l-1.577-0.865c-3.35-1.84-6.477-4.059-9.317-6.613c-0.81-0.743-1.501-1.607-2.049-2.561
	c-0.375-0.518-0.588-1.135-0.614-1.771c-0.03-1.755,0.866-3.395,2.361-4.312c2.039-1.365,4.464-2.035,6.914-1.912
	c2.575-0.008,5.127,0.483,7.515,1.451c3.026,1.319,5.869,3.027,8.456,5.08l2.98,2.219v-15.879l-0.896-0.543
	c-2.779-1.541-5.721-2.771-8.77-3.667c-2.881-0.8-5.855-1.218-8.845-1.245c-6.075-0.21-12.026,1.747-16.79,5.521
	c-4.296,3.54-6.747,8.844-6.659,14.408c-0.091,3.931,1.149,7.775,3.522,10.91c1.729,1.974,3.691,3.725,5.851,5.214
	c2.679,2.049,6.109,4.237,10.27,6.797c2.623,1.496,4.725,2.89,6.367,4.047c1.195,0.806,2.309,1.729,3.318,2.755
	c1.069,1.301,1.664,2.926,1.686,4.61c0.038,1.942-0.884,3.776-2.464,4.907c-2.199,1.449-4.809,2.144-7.437,1.981
	c-3.079,0.029-6.117-0.7-8.847-2.125c-3.354-1.911-6.384-4.345-8.975-7.207l-3.222-3.483v18.439l0.794,0.512
	c2.876,2.312,6.146,4.082,9.653,5.226c3.627,1.192,7.428,1.771,11.244,1.711c6.069,0.216,12.016-1.746,16.766-5.532
	c4.319-3.477,6.804-8.746,6.734-14.291c0.152-4.443-1.104-8.824-3.586-12.513c-3.968-4.699-8.857-8.534-14.367-11.269
	 M393.167,183.003c-3.184,1.894-6.889,2.722-10.577,2.361h-12.806v-19.976h10.987c4.161-0.341,8.328,0.567,11.971,2.605
	c2.348,1.792,3.604,4.667,3.33,7.605c0.314,2.793-0.778,5.561-2.92,7.381 M369.784,132.633h8.626
	c3.191-0.297,6.394,0.452,9.123,2.137c0.825,0.698,1.462,1.594,1.854,2.602c0.439,1.339,0.649,2.74,0.62,4.148
	c0.279,2.959-0.97,5.855-3.314,7.684c-3.425,2.01-7.385,2.924-11.345,2.617h-5.567L369.784,132.633z M397.055,156.323
	c1.97-1.196,3.688-2.761,5.061-4.61c2.196-3.193,3.302-7.013,3.146-10.885c0.311-6.148-2.235-12.096-6.899-16.114
	c-5.412-4.029-12.082-6.001-18.813-5.562h-24.351v79.905h28.52c7.176,0.342,14.251-1.801,20.032-6.064
	c5.066-3.98,7.922-10.143,7.685-16.581c0.088-5.035-1.688-9.925-4.983-13.731c-2.582-2.822-5.801-4.988-9.39-6.315 M292.133,124.724
	h-14.802v74.27h52.025v-12.641h-37.223V124.724z M232.493,165.486h34.789v-13.527h-34.789v-19.423h35.772v-13.333h-50.514v79.812
	h51.677v-13.519h-36.93L232.493,165.486z"/>
</svg>
