<?xml version="1.0" encoding="utf-8"?>
<!-- Generator: Adobe Illustrator 16.0.4, SVG Export Plug-In . SVG Version: 6.00 Build 0)  -->
<!DOCTYPE svg PUBLIC "-//W3C//DTD SVG 1.1//EN" "http://www.w3.org/Graphics/SVG/1.1/DTD/svg11.dtd">
<svg version="1.1" id="Capa_1" xmlns="http://www.w3.org/2000/svg" xmlns:xlink="http://www.w3.org/1999/xlink" x="0px" y="0px"
	 width="892.5px" height="161.75px" viewBox="0 0 892.5 161.75" enable-background="new 0 0 892.5 161.75" xml:space="preserve">
<g>
	<path fill="#F08013" d="M65.066,134.9c-8.469-20.561-11.45-41.846-11.45-63.8c0-9.466,0.601-18.953,2.182-28.29h8.078
		c-1.95,8.883-2.557,17.988-2.557,27.058c0,19.055,2.365,39.317,7.879,57.679c5.514-18.361,7.876-38.624,7.876-57.679
		c0-9.069-0.601-18.175-2.554-27.058h8.075c1.578,9.337,2.185,18.824,2.185,28.29c0,21.955-2.981,43.24-11.449,63.8H65.066z"/>
	<path fill="#F08013" d="M98.062,65.475c0.733-0.664,1.866-0.61,2.536,0.12c0.667,0.733,0.613,1.87-0.117,2.537
		c-0.736,0.667-1.866,0.61-2.533-0.12C97.28,67.278,97.332,66.146,98.062,65.475z"/>
	<path fill="#F08013" d="M98.062,71.043c0.733-0.664,1.866-0.61,2.536,0.124c0.667,0.733,0.613,1.863-0.117,2.533
		c-0.736,0.667-1.866,0.613-2.533-0.123C97.28,72.847,97.332,71.714,98.062,71.043z"/>
	<path fill="#F08013" d="M101.86,75.389c0.73-0.667,1.863-0.613,2.53,0.12c0.667,0.733,0.616,1.866-0.114,2.533
		c-0.736,0.667-1.869,0.613-2.536-0.12C101.076,77.189,101.127,76.056,101.86,75.389z"/>
	<path fill="#F08013" d="M96.932,89.913c0.736-0.667,1.866-0.613,2.536,0.12c0.667,0.732,0.613,1.865-0.117,2.533
		c-0.736,0.666-1.866,0.613-2.533-0.117C96.154,91.715,96.202,90.58,96.932,89.913z"/>
	<path fill="#F08013" d="M96.743,95.55c0.766-0.628,1.896-0.517,2.521,0.25c0.631,0.767,0.523,1.894-0.24,2.521
		c-0.77,0.632-1.896,0.521-2.524-0.246C95.871,97.311,95.976,96.182,96.743,95.55z"/>
	<path fill="#F08013" d="M100.373,100.066c0.772-0.616,1.899-0.49,2.516,0.285c0.619,0.775,0.493,1.902-0.28,2.521
		c-0.775,0.616-1.902,0.49-2.521-0.286C99.474,101.812,99.601,100.686,100.373,100.066z"/>
	<path fill="#F08013" d="M100.73,86.441c0.733-0.664,1.866-0.61,2.536,0.123c0.667,0.733,0.613,1.867-0.12,2.533
		c-0.733,0.668-1.866,0.613-2.53-0.123C99.949,88.245,100,87.111,100.73,86.441z"/>
	<path fill="#F08013" d="M93.272,114.118c0.805-0.574,1.923-0.386,2.5,0.424c0.574,0.806,0.385,1.923-0.421,2.5
		c-0.805,0.574-1.923,0.385-2.5-0.42C92.28,115.816,92.466,114.691,93.272,114.118z"/>
	<path fill="#F08013" d="M92.851,120.352c0.823-0.551,1.935-0.328,2.485,0.496c0.55,0.822,0.331,1.935-0.493,2.487
		c-0.823,0.55-1.932,0.327-2.485-0.496C91.812,122.02,92.028,120.904,92.851,120.352z"/>
	<path fill="#F08013" d="M97.497,111.092c0.811-0.574,1.926-0.385,2.5,0.424c0.574,0.809,0.385,1.926-0.421,2.5
		c-0.811,0.573-1.926,0.381-2.5-0.425C96.505,112.784,96.691,111.663,97.497,111.092z"/>
	<path fill="#F08013" d="M106.167,57.064c0.436-0.889,1.505-1.259,2.395-0.826c0.896,0.433,1.268,1.505,0.833,2.395
		c-0.43,0.893-1.502,1.262-2.395,0.829C106.109,59.029,105.737,57.957,106.167,57.064z"/>
	<path fill="#F08013" d="M107.642,51.483c0.048-0.985,0.886-1.746,1.881-1.701c0.986,0.048,1.749,0.89,1.701,1.878
		c-0.048,0.992-0.89,1.752-1.881,1.704C108.357,53.313,107.594,52.475,107.642,51.483z"/>
	<path fill="#F08013" d="M107.423,45.104c-0.184-0.974,0.457-1.908,1.43-2.095c0.971-0.186,1.911,0.454,2.095,1.427
		c0.186,0.974-0.457,1.908-1.431,2.095C108.543,46.711,107.606,46.078,107.423,45.104z"/>
	<path fill="#F08013" d="M105.442,39.385c-0.499-0.854-0.21-1.95,0.646-2.452c0.856-0.499,1.953-0.213,2.452,0.64
		c0.502,0.856,0.213,1.95-0.64,2.455C107.044,40.527,105.947,40.239,105.442,39.385z"/>
	<path fill="#F08013" d="M102.545,61.325c0.733-0.664,1.863-0.61,2.533,0.12c0.667,0.733,0.616,1.866-0.117,2.533
		s-1.869,0.613-2.533-0.12C101.764,63.125,101.815,61.995,102.545,61.325z"/>
	<path fill="#F08013" d="M40.389,65.475c-0.733-0.664-1.863-0.61-2.537,0.12c-0.667,0.733-0.613,1.87,0.121,2.537
		c0.733,0.667,1.863,0.61,2.53-0.12C41.17,67.278,41.119,66.146,40.389,65.475z"/>
	<path fill="#F08013" d="M40.389,71.043c-0.733-0.664-1.863-0.61-2.537,0.124c-0.667,0.733-0.613,1.863,0.121,2.533
		c0.733,0.667,1.863,0.613,2.53-0.123C41.17,72.847,41.119,71.714,40.389,71.043z"/>
	<path fill="#F08013" d="M36.59,75.389c-0.728-0.667-1.86-0.613-2.53,0.12c-0.667,0.733-0.613,1.866,0.114,2.533
		c0.736,0.667,1.87,0.613,2.537-0.12C37.377,77.189,37.323,76.056,36.59,75.389z"/>
	<circle fill="#F08013" cx="40.311" cy="91.239" r="1.794"/>
	<path fill="#F08013" d="M41.708,95.55c-0.767-0.628-1.894-0.517-2.521,0.25c-0.631,0.767-0.523,1.894,0.244,2.521
		c0.766,0.632,1.896,0.521,2.524-0.246C42.579,97.311,42.474,96.182,41.708,95.55z"/>
	<circle fill="#F08013" cx="36.963" cy="101.47" r="1.794"/>
	<path fill="#F08013" d="M37.72,86.441c-0.733-0.664-1.863-0.61-2.533,0.123c-0.667,0.733-0.616,1.867,0.117,2.533
		c0.733,0.668,1.866,0.613,2.533-0.123C38.501,88.245,38.453,87.111,37.72,86.441z"/>
	<path fill="#F08013" d="M45.182,114.118c-0.809-0.574-1.926-0.386-2.503,0.424c-0.574,0.806-0.384,1.923,0.421,2.5
		c0.809,0.574,1.926,0.385,2.5-0.42C46.17,115.816,45.987,114.691,45.182,114.118z"/>
	<path fill="#F08013" d="M45.599,120.352c-0.823-0.551-1.932-0.328-2.482,0.496c-0.553,0.822-0.331,1.935,0.49,2.487
		c0.823,0.55,1.936,0.327,2.485-0.496C46.642,122.02,46.423,120.904,45.599,120.352z"/>
	<path fill="#F08013" d="M40.954,111.092c-0.812-0.574-1.923-0.385-2.5,0.424c-0.574,0.809-0.384,1.926,0.421,2.5
		c0.812,0.573,1.929,0.381,2.503-0.425C41.945,112.784,41.759,111.663,40.954,111.092z"/>
	<path fill="#F08013" d="M32.287,57.064c-0.436-0.889-1.509-1.259-2.398-0.826c-0.892,0.433-1.268,1.505-0.829,2.395
		c0.427,0.893,1.5,1.262,2.392,0.829C32.341,59.029,32.713,57.957,32.287,57.064z"/>
	<path fill="#F08013" d="M30.812,51.483c-0.051-0.985-0.893-1.746-1.884-1.701c-0.986,0.048-1.749,0.89-1.701,1.878
		c0.048,0.992,0.889,1.752,1.878,1.704C30.093,53.313,30.856,52.475,30.812,51.483z"/>
	<path fill="#F08013" d="M31.031,45.104c0.18-0.974-0.457-1.908-1.43-2.095c-0.974-0.186-1.912,0.454-2.098,1.427
		c-0.187,0.974,0.457,1.908,1.43,2.095C29.907,46.711,30.844,46.078,31.031,45.104z"/>
	<path fill="#F08013" d="M33.008,39.385c0.499-0.854,0.21-1.95-0.643-2.452c-0.86-0.499-1.954-0.213-2.456,0.64
		c-0.499,0.856-0.213,1.95,0.643,2.455C31.409,40.527,32.503,40.239,33.008,39.385z"/>
	<path fill="#F08013" d="M35.905,61.325c-0.733-0.664-1.863-0.61-2.53,0.12c-0.667,0.733-0.613,1.866,0.114,2.533
		c0.733,0.667,1.869,0.613,2.537-0.12C36.689,63.125,36.638,61.995,35.905,61.325z"/>
	<g>
		<path fill="#F08013" d="M57.502,113.887l-10.238-7.218c-0.817-0.655-0.95-1.849-0.294-2.666l6.846-8.015
			c1.415-1.551,1.304-3.955-0.25-5.373l-8.574-7.811c-0.775-0.703-0.829-1.902-0.126-2.678l7.819-8.567
			c1.418-1.554,1.304-3.958-0.246-5.373L41.086,55.814c-1.551-1.416-1.515-3.711-0.247-5.37l11.816-15.78
			c1.163-1.523,1.091-3.299-0.205-4.48c-0.649-0.586-1.923-1.274-4.255-1.024C37.053,30.361,29.57,40.13,30.802,51.433
			c0.619,5.677,2.645,7.714,3.756,8.727l8.546,7.807c0.775,0.707,0.83,1.902,0.124,2.678l-7.813,8.57
			c-1.415,1.551-1.304,3.955,0.25,5.37l8.57,7.815c0.775,0.707,0.83,1.906,0.124,2.679l-6.879,8.622
			c-1.313,1.641-1.045,4.033,0.592,5.346l10.256,7.317c0.826,0.646,0.967,1.836,0.324,2.659l-4.42,6.604
			c-1.223,1.707-0.833,4.083,0.877,5.308c1.71,1.224,4.084,0.832,5.304-0.879l7.735-10.83
			C59.447,117.57,59.158,115.186,57.502,113.887z M43.081,34.084c0.571-0.622,1.533-0.665,2.158-0.099
			c0.625,0.568,0.667,1.535,0.102,2.157c-0.571,0.622-1.536,0.667-2.158,0.1C42.558,35.674,42.513,34.709,43.081,34.084z"/>
		<path fill="#F08013" d="M90.255,29.159c-2.332-0.25-3.606,0.438-4.255,1.024c-1.292,1.181-1.367,2.957-0.205,4.48l11.819,15.78
			c1.265,1.659,1.301,3.955-0.25,5.37L86.012,66.188c-1.551,1.416-1.665,3.819-0.247,5.373l7.819,8.567
			c0.706,0.775,0.649,1.974-0.126,2.679l-8.573,7.81c-1.554,1.418-1.662,3.821-0.25,5.373l6.849,8.015
			c0.655,0.816,0.52,2.01-0.298,2.666l-10.235,7.219c-1.656,1.297-1.944,3.685-0.649,5.34l7.732,10.83
			c1.223,1.711,3.6,2.102,5.307,0.877c1.71-1.224,2.101-3.6,0.88-5.307l-4.423-6.605c-0.643-0.822-0.499-2.012,0.325-2.658
			l10.259-7.317c1.638-1.313,1.905-3.706,0.595-5.346l-6.881-8.622c-0.709-0.771-0.655-1.971,0.12-2.678l8.573-7.816
			c1.554-1.416,1.662-3.819,0.25-5.37l-7.816-8.57c-0.707-0.775-0.649-1.971,0.123-2.678l8.549-7.807
			c1.112-1.013,3.134-3.05,3.753-8.727C108.88,40.13,101.4,30.361,90.255,29.159z M95.27,36.242c-0.625,0.568-1.589,0.522-2.161-0.1
			c-0.565-0.622-0.523-1.589,0.102-2.157c0.625-0.565,1.59-0.523,2.158,0.099C95.937,34.709,95.892,35.674,95.27,36.242z"/>
	</g>
</g>
<g>
	<path fill="#404827" d="M379.85,81.267h17.363v-6.752H379.85V64.82h17.853v-6.656h-25.212v39.841h25.795v-6.746H379.85V81.267z
		 M409.621,60.919h-7.387v37.085h25.964v-6.322h-18.577V60.919z M461.993,76.696c0.998-0.646,1.882-1.382,2.523-2.299
		c1.092-1.481,1.572-3.327,1.572-5.434c0-3.375-1.146-6.145-3.447-8.044c-2.296-1.917-5.434-2.789-9.388-2.789h-12.152v39.874
		h14.237c4.094,0,7.453-1,9.998-3.029c2.521-2.027,3.88-4.855,3.832-8.275c0-2.647-0.859-4.992-2.488-6.854
		C465.443,78.469,463.875,77.42,461.993,76.696 M448.381,64.871h4.307c2.263,0,3.747,0.406,4.553,1.067
		c0.402,0.352,0.69,0.718,0.926,1.298c0.192,0.541,0.312,1.232,0.312,2.073c0,1.842-0.548,2.987-1.655,3.829
		c-1.064,0.799-2.954,1.307-5.662,1.307h-2.779L448.381,64.871L448.381,64.871z M460.043,90.002
		c-0.952,0.729-2.713,1.227-5.279,1.182h-6.383v-9.966h5.487c2.879,0,4.874,0.49,5.974,1.302c1.088,0.822,1.659,1.922,1.659,3.797
		C461.501,88.158,461.011,89.257,460.043,90.002 M527.168,76.281L527.168,76.281l-0.791-0.43c-2.112-1.223-3.651-2.338-4.646-3.293
		c-0.503-0.496-0.84-0.914-1.028-1.289c-0.243-0.382-0.307-0.661-0.307-0.887c0.029-0.922,0.334-1.547,1.176-2.151
		c0.854-0.61,1.959-0.953,3.452-0.953c1.271,0,2.504,0.222,3.754,0.721c1.273,0.541,2.684,1.349,4.219,2.539l1.491,1.106v-7.937
		l-0.451-0.27c-1.454-0.793-2.915-1.41-4.379-1.833c-1.451-0.384-2.905-0.616-4.411-0.616c-3.314,0-6.163,0.928-8.375,2.762
		c-2.188,1.839-3.339,4.327-3.339,7.194c0,2.085,0.58,3.916,1.758,5.448c0.661,0.809,1.623,1.65,2.925,2.603
		c1.337,1.013,3.05,2.115,5.129,3.394c1.306,0.744,2.356,1.441,3.175,2.02c0.817,0.578,1.388,1.07,1.657,1.376
		c0.565,0.685,0.782,1.376,0.843,2.299c-0.061,1.108-0.395,1.8-1.229,2.449c-0.808,0.612-2.034,0.989-3.714,0.989
		c-1.568,0-3.029-0.336-4.414-1.062c-1.364-0.7-2.867-1.926-4.48-3.597l-1.607-1.74v9.208l0.396,0.258
		c1.516,1.19,3.12,2.073,4.82,2.608c1.716,0.592,3.595,0.854,5.613,0.854c3.336,0,6.179-0.929,8.373-2.759
		c2.208-1.845,3.358-4.3,3.358-7.134c0-2.413-0.57-4.526-1.797-6.245C533.111,80.149,530.743,78.343,527.168,76.281 M573.535,91.875
		c2.766-3.3,4.146-7.193,4.146-11.597c0-2.693-0.514-5.232-1.467-7.57c-0.984-2.293-2.449-4.396-4.369-6.274
		c-1.833-1.8-3.99-3.225-6.395-4.177c-2.458-0.961-4.978-1.452-7.663-1.452c-2.64,0-5.172,0.49-7.579,1.452
		c-2.389,0.953-4.531,2.335-6.454,4.177c-1.83,1.797-3.288,3.867-4.272,6.202c-1.047,2.38-1.552,4.784-1.552,7.288
		c0,4.557,1.39,8.609,4.114,12.038c2.684,3.396,6.266,5.659,10.641,6.765c3.265,2.312,6.329,4.075,9.231,5.287
		c3.005,1.264,5.729,1.881,8.21,1.881h0.729c0.23,0,0.42-0.024,0.601-0.063l0.295-0.042l5.457-4.796l-0.415-1.151l-0.301-0.728
		l-0.722,0.159c-0.709,0.153-1.311,0.229-1.894,0.293c-0.541,0.096-1.027,0.096-1.499,0.096c-1.416,0-2.9-0.21-4.469-0.583
		c-0.968-0.277-2.073-0.661-3.252-1.115C568.253,96.626,571.275,94.63,573.535,91.875 M569.479,84.215
		c-0.653,1.53-1.531,2.909-2.726,4.061l-0.042,0.033c-1.226,1.273-2.604,2.182-4.096,2.836c-1.539,0.613-3.139,0.947-4.826,0.947
		c-1.686,0-3.271-0.333-4.832-0.982c-1.568-0.686-2.909-1.604-4.108-2.801v-0.033c-1.181-1.151-2.088-2.53-2.7-4.061
		c-0.661-1.535-0.962-3.14-0.962-4.835c0-1.716,0.301-3.33,0.962-4.893c0.612-1.536,1.521-2.879,2.681-4.042
		c1.262-1.22,2.626-2.134,4.177-2.783c1.575-0.661,3.139-0.959,4.784-0.959c1.688,0,3.287,0.298,4.826,0.959
		c1.526,0.607,2.87,1.529,4.075,2.752c1.256,1.265,2.163,2.635,2.788,4.18c0.648,1.487,0.956,3.068,0.956,4.784
		C570.435,81.075,570.128,82.68,569.479,84.215 M606.057,83.716c-0.032,2.368-0.787,4.132-2.487,5.542
		c-1.642,1.385-3.867,2.167-6.779,2.167c-1.719,0-3.207-0.315-4.478-0.847c-1.312-0.544-2.416-1.385-3.379-2.494
		c-0.479-0.574-0.842-1.259-1.021-2.07c-0.229-0.8-0.357-2.339-0.357-4.562v-20.5H580.7v20.701c0,2.828,0.191,4.938,0.618,6.432
		c0.421,1.466,1.101,2.801,2.098,3.979c1.581,1.959,3.492,3.418,5.788,4.444c2.271,0.995,4.823,1.5,7.585,1.5
		c4.664,0,8.588-1.301,11.575-3.903c3.028-2.582,4.562-6.094,4.508-10.234V60.95h-6.815V83.716L606.057,83.716z M624.64,91.613
		V82.52h17.473v-6.353H624.64v-8.733h18.02v-6.323h-25.404v36.812h25.984v-6.312h-18.6V91.613z M505.297,66.157
		c-1.879-1.785-4.027-3.131-6.432-4.09c-2.458-0.922-5.016-1.412-7.717-1.412c-2.636,0-5.153,0.49-7.575,1.412
		c-2.419,0.917-4.604,2.305-6.471,4.09c-1.882,1.731-3.336,3.759-4.376,6.067c-0.997,2.29-1.525,4.706-1.525,7.155
		c0,2.572,0.496,5.062,1.49,7.359c0.991,2.302,2.458,4.369,4.411,6.207c1.826,1.723,3.979,3.107,6.432,4.058
		c2.41,0.919,4.979,1.413,7.614,1.413c2.701,0,5.259-0.454,7.672-1.376c2.42-0.947,4.553-2.287,6.516-4.093
		c1.884-1.764,3.296-3.805,4.33-6.053c1.004-2.295,1.49-4.718,1.49-7.211c0-2.638-0.486-5.087-1.454-7.344
		C508.695,70.031,507.22,67.96,505.297,66.157 M502.917,84.242c-0.649,1.503-1.527,2.843-2.72,4
		c-1.225,1.181-2.611,2.111-4.104,2.674c-1.567,0.604-3.176,0.92-4.945,0.92c-1.72,0-3.329-0.316-4.907-0.92
		c-1.561-0.648-2.899-1.539-4.081-2.674c-1.192-1.157-2.118-2.497-2.729-4c-0.65-1.481-0.958-3.023-0.958-4.706
		c0-1.641,0.308-3.222,0.958-4.754c0.652-1.493,1.536-2.792,2.729-3.945c1.251-1.154,2.642-2.064,4.195-2.717
		c1.535-0.619,3.146-0.925,4.793-0.925c1.73,0,3.339,0.306,4.864,0.925c1.542,0.607,2.915,1.533,4.114,2.717
		c1.262,1.226,2.182,2.563,2.825,4.062c0.605,1.455,0.919,2.996,0.919,4.637C503.872,81.219,503.56,82.76,502.917,84.242"/>
	<path fill="#404827" d="M135.241,98.02c3.293,0,5.905-1.045,7.831-3.104c1.899-2.07,2.903-4.871,2.903-8.359V71.341h-2.194v15.334
		c0,2.796-0.769,5.017-2.281,6.668c-1.581,1.644-3.651,2.494-6.259,2.494c-2.603,0-4.676-0.851-6.208-2.494
		c-1.569-1.653-2.344-3.874-2.344-6.668V71.341h-2.091v15.214c0,3.525,0.943,6.326,2.867,8.36
		C129.381,96.975,131.989,98.02,135.241,98.02 M156.047,75.299l16.859,20.342h1.688V72.648h-1.815V92.68l-16.657-20.032h-1.914
		v22.993h1.839V75.299z M182.949,95.979h1.957V72.958h-1.957V95.979z M201.454,96.364l9.658-23.406h-1.956l-7.858,19.315
		l-7.768-19.315h-2.041l9.691,23.406H201.454z M229.191,94.408h-10.764v-9.355h10.148v-1.476h-10.148v-9.126h10.5v-1.493h-12.345
		v23.021h12.609V94.408z M239.123,84.912h1.851c1.319,0,2.293,0.111,2.93,0.271c0.655,0.141,1.19,0.463,1.617,0.875
		c0.294,0.312,0.685,0.808,1.214,1.535c0.502,0.691,1.151,1.61,1.839,2.731l3.642,5.655h2.062l-6.281-9.686
		c-0.264-0.421-0.577-0.812-0.872-1.111c-0.349-0.311-0.739-0.578-1.154-0.838c1.449-0.467,2.54-1.164,3.257-2.117
		c0.733-0.925,1.073-2.108,1.073-3.495c0-1.863-0.616-3.287-1.915-4.282c-1.31-0.991-3.143-1.493-5.55-1.493h-5.526V95.98h1.812
		L239.123,84.912L239.123,84.912z M239.123,74.536h3.823c1.722,0,3.026,0.336,3.981,1.103c0.919,0.73,1.376,1.764,1.376,3.095
		c0,0.971-0.18,1.803-0.601,2.467c-0.427,0.693-1.04,1.188-1.887,1.554c-0.451,0.198-0.998,0.354-1.68,0.476
		c-0.707,0.062-1.89,0.103-3.597,0.103h-1.416L239.123,74.536L239.123,74.536z M271.749,90.002c0-0.76-0.135-1.484-0.36-2.186
		c-0.276-0.685-0.649-1.301-1.124-1.83c-0.721-0.805-2.151-1.644-4.213-2.493c-0.229-0.111-0.379-0.162-0.493-0.237
		c-1.887-0.799-3.101-1.484-3.642-2.137c-0.577-0.604-0.847-1.455-0.847-2.449c0-1.235,0.415-2.266,1.298-3.11
		c0.884-0.796,1.996-1.223,3.366-1.223c0.848,0,1.695,0.153,2.537,0.454c0.896,0.307,1.767,0.814,2.722,1.46v-2.064
		c-0.877-0.502-1.719-0.884-2.566-1.154c-0.842-0.22-1.719-0.385-2.603-0.385c-1.959,0-3.528,0.577-4.754,1.728
		c-1.232,1.148-1.839,2.608-1.839,4.357c0,1.458,0.385,2.658,1.196,3.58c0.799,0.916,2.29,1.836,4.478,2.74
		c2.109,0.893,3.45,1.659,4.03,2.309c0.61,0.69,0.865,1.539,0.865,2.574c0,1.416-0.406,2.519-1.298,3.359
		c-0.835,0.812-2.031,1.232-3.519,1.232c-0.884,0-1.851-0.231-2.765-0.619c-0.992-0.412-1.989-1.028-3.059-1.872v2.218
		c0.998,0.7,1.947,1.188,2.915,1.536c0.986,0.333,1.954,0.499,2.945,0.499c1.965,0,3.561-0.562,4.829-1.762
		C271.112,93.344,271.749,91.846,271.749,90.002 M281.025,72.958h-1.938v23.024h1.938V72.958z M301.835,95.441
		c1.262-0.34,2.338-0.871,3.339-1.607c1.421-1.07,2.521-2.404,3.333-4.055c0.802-1.646,1.178-3.455,1.178-5.327
		c0-1.882-0.375-3.645-1.178-5.328c-0.812-1.646-1.911-2.99-3.333-4.057c-1.001-0.73-2.077-1.268-3.309-1.607
		c-1.214-0.301-2.668-0.502-4.43-0.502h-7.895v23.021h7.895C299.155,95.979,300.606,95.791,301.835,95.441 M291.495,94.342v-19.74
		h5.478c1.491,0,2.789,0.162,3.858,0.391c1.088,0.265,2.038,0.646,2.804,1.175c1.271,0.853,2.263,2.043,3.002,3.498
		c0.715,1.455,1.058,3.068,1.058,4.823c0,1.728-0.343,3.329-1.058,4.835c-0.739,1.451-1.731,2.605-3.002,3.488
		c-0.767,0.533-1.716,0.918-2.804,1.188c-1.07,0.225-2.368,0.342-3.858,0.342H291.495z M322.601,73.835l-9.46,22.144h1.839
		l3.222-7.66h9.526l3.233,7.66h1.839l-9.466-22.144H322.601L322.601,73.835z M318.802,86.823l4.192-9.953l4.135,9.953H318.802z
		 M351.723,95.441c1.277-0.34,2.377-0.871,3.33-1.607c1.434-1.07,2.53-2.404,3.333-4.055c0.812-1.646,1.196-3.455,1.196-5.327
		c0-1.882-0.385-3.645-1.196-5.328c-0.802-1.646-1.899-2.99-3.333-4.057c-0.953-0.73-2.052-1.268-3.296-1.607
		c-1.226-0.301-2.675-0.502-4.438-0.502h-7.853v23.021h7.853C349.039,95.979,350.505,95.791,351.723,95.441 M341.37,94.342v-19.74
		h5.493c1.484,0,2.789,0.162,3.858,0.391c1.082,0.265,2.043,0.646,2.801,1.175c1.274,0.853,2.266,2.043,2.987,3.498
		c0.739,1.455,1.073,3.068,1.073,4.823c0,1.728-0.333,3.329-1.073,4.835c-0.721,1.451-1.713,2.605-2.987,3.488
		c-0.757,0.533-1.719,0.918-2.801,1.188c-1.069,0.225-2.374,0.342-3.858,0.342H341.37z"/>
</g>
<text transform="matrix(1 0 0 1 710.9277 90.2129)" fill="#404827" font-family="'AcherusGrotesque-Light'" font-size="23.0789">Publicaciones</text>
<rect x="670.81" y="52.764" fill="#404827" width="7.391" height="55.753"/>
</svg>
